<svg xmlns="http://www.w3.org/2000/svg" viewBox="0 0 59 64.01"><title>company sructure</title><g id="Layer_2" data-name="Layer 2"><g id="company_sructure" data-name="company sructure"><path d="M55.06,54.25V48.8a1,1,0,0,0-1-1H30.5V41.88A57.31,57.31,0,0,0,47.92,39,1,1,0,0,0,48.6,38c0-6.8-3.7-11.7-10.45-14A10,10,0,0,0,41,17.33v-6C41,6.44,38,2.48,33.15.75c-3.78-1.33-7.61-.86-9.5,1.12-4.22,1-6.13,5.78-6.08,8.85l0,2.62v4a10,10,0,0,0,2.85,6.77C13.8,26.48,10.34,31.16,10.19,38a1,1,0,0,0,.67,1A57.41,57.41,0,0,0,28.5,41.88V47.8H4.94a1,1,0,0,0-1,1v5.45a4.95,4.95,0,1,0,2,0V49.8H28.5v4.45a4.94,4.94,0,1,0,2,0V49.8H53.06v4.45a4.94,4.94,0,1,0,2,0ZM7.89,59.08a2.94,2.94,0,1,1-2.95-2.93A2.94,2.94,0,0,1,7.89,59.08ZM19.57,10.69c0-2.06,1.37-6.35,4.77-6.91A1,1,0,0,0,25,3.42c1.22-1.52,4.46-1.86,7.53-.78C34,3.17,39,5.38,39,11.35v1H31c-2.91,0-3.6-.83-5.16-3.24A1,1,0,0,0,25,8.63h0a1,1,0,0,0-.84.46l-.53.85c-1.24,2-1.5,2.39-3.29,2.39H19.6Zm0,6.64v-3h.68c2.68,0,3.56-1.07,4.7-2.87,1.32,1.81,2.73,2.87,6,2.87h8v3a8.55,8.55,0,0,1-4.1,6.92A10.09,10.09,0,0,1,29.35,26H29.3C24.23,25.95,19.61,21.83,19.61,17.33ZM32.44,59.08a2.94,2.94,0,1,1-2.94-2.93A2.94,2.94,0,0,1,32.44,59.08ZM12.22,37.34c.36-6,3.56-9.78,10-11.71A12.28,12.28,0,0,0,29.29,28h.06A12.11,12.11,0,0,0,36,25.91c.14-.09.25-.19.39-.29,4.63,1.26,9.9,4.32,10.22,11.71A58.72,58.72,0,0,1,12.22,37.34ZM54.06,62A2.93,2.93,0,1,1,57,59.08,2.94,2.94,0,0,1,54.06,62Z"/></g></g></svg>