<?xml version="1.0" encoding="UTF-8"?>
<svg version="1.1" xmlns="http://www.w3.org/2000/svg" width="512" height="512">
<path d="M0 0 C1.81406688 -0.01173486 1.81406688 -0.01173486 3.66478157 -0.02370679 C5.01375587 -0.01722006 6.36272883 -0.01045006 7.71170044 -0.00342751 C9.1393361 -0.00688215 10.5669691 -0.01164541 11.99459648 -0.01760924 C15.92704326 -0.03017558 19.85927266 -0.02392343 23.79172039 -0.01465058 C28.0289987 -0.00788338 32.26623873 -0.01832971 36.50350952 -0.02659035 C44.80803275 -0.03995485 53.11247479 -0.03703788 61.41700125 -0.02835242 C68.16414654 -0.02158695 74.91126903 -0.02065423 81.65841675 -0.02392387 C82.6174191 -0.02438357 83.57642145 -0.02484327 84.56448448 -0.0253169 C86.51246469 -0.02627604 88.46044489 -0.02724868 90.40842509 -0.02823468 C108.68976315 -0.03679653 126.97105614 -0.02694198 145.25238681 -0.01083358 C160.95059857 0.00257032 176.64874379 0.00024246 192.34695435 -0.01358986 C210.5613038 -0.02963165 228.77561372 -0.03597248 246.98996925 -0.02675307 C248.93092473 -0.02579738 250.87188021 -0.02485427 252.81283569 -0.02392387 C254.24544827 -0.02322963 254.24544827 -0.02322963 255.70700252 -0.02252137 C262.44879215 -0.01992727 269.19055677 -0.0243115 275.93234253 -0.03136253 C284.14439682 -0.03976219 292.35636505 -0.03752983 300.56840944 -0.0215203 C304.76115184 -0.01361683 308.95375056 -0.01058113 313.146492 -0.02046776 C316.9807065 -0.02937246 320.81464343 -0.0245522 324.64883256 -0.0085351 C326.03976676 -0.00516927 327.43072416 -0.00692153 328.82164359 -0.01416247 C330.70483069 -0.02321804 332.58808297 -0.01218187 334.47125244 0 C336.04370318 0.00073059 336.04370318 0.00073059 337.64792061 0.00147593 C340.61080516 0.43204473 341.46486959 1.01881829 343.23562622 3.37752342 C344.89438419 6.69503935 344.36451925 10.40349396 344.34915161 14.0498867 C344.34929764 14.94750725 344.34944366 15.84512779 344.34959412 16.76994896 C344.34889575 19.74593561 344.34110689 22.72186017 344.33328247 25.69783592 C344.33141802 27.75763985 344.32999425 29.81744423 344.32899475 31.87724876 C344.3251717 37.30569744 344.31534321 42.73411947 344.30429077 48.1625576 C344.2940721 53.69905296 344.28949615 59.23555261 344.28445435 64.77205467 C344.27372077 75.64055598 344.25664687 86.50903749 344.23562622 97.37752342 C345.37644653 97.80098045 345.37644653 97.80098045 346.54031372 98.23299217 C351.89828133 100.50818712 355.69776892 104.16081674 358.23562622 109.37752342 C358.23562622 110.03752342 358.23562622 110.69752342 358.23562622 111.37752342 C359.96812622 111.28471092 359.96812622 111.28471092 361.73562622 111.19002342 C367.52738501 111.20027432 372.01597505 113.03540876 376.92312622 116.00252342 C385.48791393 124.79879188 386.44946798 135.46353263 386.41751099 147.18758202 C386.33506373 152.96161548 385.7908502 158.65997151 385.06375122 164.38924217 C385.28417147 168.22154886 386.66503343 169.61848492 389.23562622 172.37752342 C391.08942488 176.08512074 390.6948649 180.33125827 390.23562622 184.37752342 C388.23905495 188.2329714 386.83854984 189.97557434 383.23562622 192.37752342 C382.24562622 192.37752342 381.25562622 192.37752342 380.23562622 192.37752342 C380.10607544 193.3423867 380.10607544 193.3423867 379.97390747 194.32674217 C377.16395764 212.39807087 368.32404344 230.13238777 353.59500122 241.39705467 C351.50847789 242.79791232 349.41611732 244.12927127 347.23562622 245.37752342 C347.83496686 252.56961106 349.88540281 257.97388584 354.98562622 263.19002342 C358.69103435 265.68404813 362.003558 266.99115625 366.23562622 268.37752342 C366.50375122 267.75877342 366.77187622 267.14002342 367.04812622 266.50252342 C368.23562622 264.37752342 368.23562622 264.37752342 371.23562622 262.37752342 C383.84828406 261.4928226 400.49024402 267.81852362 410.02078247 275.88924217 C411.76064586 278.02071469 411.4514843 279.71527375 411.23562622 282.37752342 C412.24625122 282.23314842 413.25687622 282.08877342 414.29812622 281.94002342 C419.01984997 282.46465939 420.24982143 283.49701767 423.33718872 286.91267967 C437.91672911 305.84208294 437.91672911 305.84208294 437.23562622 315.37752342 C437.80410278 315.57732811 438.37257935 315.7771328 438.95828247 315.98299217 C442.11736209 317.91745431 443.74819409 320.61541598 445.67312622 323.69002342 C446.06492065 324.30941795 446.45671509 324.92881248 446.86038208 325.56697655 C451.37466606 332.9273237 456.25435641 341.50509422 455.23562622 350.37752342 C453.56954396 353.28723404 451.55792085 355.44493266 449.25730896 357.88637352 C447.02629561 360.3267392 445.32938148 362.81053823 443.6242218 365.63844872 C439.44994606 371.76565951 434.52183659 377.0188927 427.1017766 378.92595291 C413.56362552 381.32070435 399.38798025 380.46862288 385.70826745 380.20001507 C379.94315154 380.1042067 374.17797421 380.10368261 368.41218567 380.09181786 C358.7455503 380.05881279 349.08122401 379.96399804 339.41555786 379.82478905 C325.7857113 379.62862836 312.15692645 379.54802784 298.52589667 379.48870325 C287.9250792 379.43815745 277.32448173 379.35473724 266.72390747 379.26814842 C265.02184847 379.25497818 265.02184847 379.25497818 263.28540444 379.24154186 C256.76819223 379.18958593 250.25153813 379.12137289 243.73478508 379.02783394 C241.76196891 379.00150434 239.78908021 378.98008326 237.81615448 378.96393013 C235.12344508 378.94074755 232.43163575 378.89920445 229.73924255 378.85268211 C228.56887631 378.84839585 228.56887631 378.84839585 227.37486631 378.84402299 C221.90364474 378.72000239 217.68946323 377.61570254 213.59109497 373.87752342 C209.45096678 368.56043571 209.09422888 364.75189864 209.13796997 358.20955467 C209.14009239 357.01733551 209.14009239 357.01733551 209.14225769 355.80103111 C209.14785244 353.26399017 209.16040394 350.72703767 209.17312622 348.19002342 C209.1781419 346.46932157 209.18270469 344.74861834 209.1867981 343.02791405 C209.19782015 338.81108313 209.21508116 334.59431827 209.23562622 330.37752342 C208.13033916 330.3802888 207.02505209 330.38305418 205.88627148 330.38590336 C179.02203429 330.45243095 152.15780776 330.50176688 125.29350567 330.53295994 C112.30225895 330.54844468 99.31106658 330.56956486 86.31985474 330.60384178 C74.99989516 330.63369498 63.67997492 330.65308672 52.35997707 330.65978891 C46.36324846 330.66370808 40.36663242 330.672952 34.3699398 330.69471359 C28.73033763 330.7150143 23.09089485 330.72137024 17.45125961 330.71684647 C15.37714968 330.71767455 13.30303465 330.72367821 11.22895622 330.73513985 C8.40531281 330.74998357 5.5822776 330.74650683 2.75862122 330.73828697 C1.93080586 330.7470255 1.1029905 330.75576402 0.25008982 330.76476735 C-5.26846512 330.72110197 -5.26846512 330.72110197 -7.47370845 329.19325143 C-9.24760187 326.69771065 -9.14038336 325.0072794 -9.1418972 321.9567318 C-9.15363206 320.25761697 -9.15363206 320.25761697 -9.165604 318.5241766 C-9.15556575 316.64935305 -9.15556575 316.64935305 -9.14532471 314.73665428 C-9.14877957 313.39976398 -9.15354297 312.06287653 -9.15950644 310.72599506 C-9.17206989 307.04437797 -9.16582197 303.36299313 -9.15654778 299.68137503 C-9.1497794 295.71403686 -9.1602275 291.74673954 -9.16848755 287.77940941 C-9.18185078 280.00428071 -9.17893565 272.22923872 -9.17024963 264.45410657 C-9.16348365 258.13697613 -9.16255164 251.81987006 -9.16582108 245.50273705 C-9.16628077 244.60479264 -9.16674047 243.70684824 -9.1672141 242.7816934 C-9.16817325 240.95772719 -9.16914589 239.13376098 -9.17013188 237.30979478 C-9.17869336 220.19302825 -9.16883977 203.07630986 -9.15273078 185.95955122 C-9.13932691 171.2619371 -9.14165479 156.56439406 -9.15548706 141.86678123 C-9.17152951 124.8126607 -9.17786931 107.7585824 -9.16865027 90.70445538 C-9.16769459 88.88707352 -9.16675148 87.06969166 -9.16582108 85.2523098 C-9.16535825 84.35804517 -9.16489542 83.46378054 -9.16441857 82.54241699 C-9.16182467 76.23043331 -9.16620828 69.91847635 -9.17325974 63.60649681 C-9.18166012 55.91778891 -9.17942549 48.22917293 -9.1634175 40.54047561 C-9.155515 36.61506511 -9.15247666 32.68980805 -9.16236496 28.76439857 C-9.17127171 25.17443305 -9.16644605 21.58476392 -9.1504323 17.99482548 C-9.14546714 16.07350683 -9.15531691 14.15216777 -9.165604 12.23087025 C-9.15778075 11.09812703 -9.14995751 9.96538382 -9.1418972 8.79831505 C-9.14141014 7.81684533 -9.14092309 6.83537561 -9.14042127 5.82416439 C-8.76437378 3.37752342 -8.76437378 3.37752342 -7.60105193 1.56231916 C-5.00240295 -0.11400515 -3.08363734 0.00143271 0 0 Z " fill="#F4BA99" transform="translate(32.764373779296875,66.62247657775879)"/>
<path d="M0 0 C104.28 0 208.56 0 316 0 C316 0.33 316 0.66 316 1 C314.71867187 1.20753906 313.43734375 1.41507813 312.1171875 1.62890625 C297.82192327 4.11028038 283.63993243 7.57842325 274.0234375 19.4375 C263.68795912 35.50402563 263.38104097 52.42531842 265.9753418 70.8996582 C266 73 266 73 264.125 76 C263.42375 76.66 262.7225 77.32 262 78 C260.13418179 81.73163642 260.44535323 85.93674501 261 90 C262.34854227 92.75304065 263.62787992 93.89144882 266 96 C266.84046875 96.2371875 267.6809375 96.474375 268.546875 96.71875 C271 98 271 98 272.22265625 101.125 C272.63837891 103.043125 272.63837891 103.043125 273.0625 105 C274.51527381 111.53413474 276.42395641 116.55989103 279 123 C187.26 123 95.52 123 1 123 C1 139.5 1 156 1 173 C98.02 173 195.04 173 295 173 C291.3364432 175.4423712 288.54463656 175.24133601 284.3125 175.3125 C265.49266152 176.08357383 248.88295542 184.10787974 236 198 C227.93370489 207.83407083 222.36675039 218.67602222 219.92553711 231.23754883 C219.66322548 232.57829216 219.66322548 232.57829216 219.39561462 233.94612122 C219.19978539 234.96279121 219.19978539 234.96279121 219 236 C190.88892818 236.07000622 162.77786938 236.122947 134.66672802 236.15543652 C121.61494728 236.1709213 108.56322063 236.19204157 95.51147461 236.22631836 C84.13877732 236.25617142 72.76611918 236.27556327 61.3933838 236.28226548 C55.36870974 236.28618469 49.34414774 236.29542875 43.31950951 236.31719017 C37.6536427 236.33749066 31.98793455 236.34384686 26.32203484 236.33932304 C24.2382496 236.34015114 22.15445929 236.34615492 20.07070541 236.35761642 C17.23392573 236.37245981 14.39775145 236.36898353 11.56095886 236.36076355 C10.72925255 236.36950207 9.89754625 236.3782406 9.04063672 236.38724393 C3.46153244 236.34330222 3.46153244 236.34330222 1.2891655 234.72742796 C-0.27619366 232.62991203 -0.37332872 231.58824991 -0.36914349 228.99200916 C-0.37810241 227.76521852 -0.37810241 227.76521852 -0.38724232 226.51364422 C-0.37413533 225.16724975 -0.37413533 225.16724975 -0.36076355 223.7936554 C-0.3633316 222.84192947 -0.36589966 221.89020355 -0.36854553 220.90963745 C-0.37352843 217.69650658 -0.35691301 214.48384027 -0.34057617 211.27075195 C-0.3396576 208.93751891 -0.3400569 206.60428503 -0.34167194 204.27105236 C-0.3423508 198.00789904 -0.32493033 191.74491676 -0.30384064 185.48180389 C-0.28678893 179.61038152 -0.28595309 173.7390013 -0.28381348 167.86755371 C-0.26805507 150.68251304 -0.22617182 133.49750438 -0.1875 116.3125 C-0.125625 77.929375 -0.06375 39.54625 0 0 Z " fill="#010101" transform="translate(24,161)"/>
<path d="M0 0 C1.81406688 -0.01173486 1.81406688 -0.01173486 3.66478157 -0.02370679 C5.01375587 -0.01722006 6.36272883 -0.01045006 7.71170044 -0.00342751 C9.1393361 -0.00688215 10.5669691 -0.01164541 11.99459648 -0.01760924 C15.92704326 -0.03017558 19.85927266 -0.02392343 23.79172039 -0.01465058 C28.0289987 -0.00788338 32.26623873 -0.01832971 36.50350952 -0.02659035 C44.80803275 -0.03995485 53.11247479 -0.03703788 61.41700125 -0.02835242 C68.16414654 -0.02158695 74.91126903 -0.02065423 81.65841675 -0.02392387 C82.6174191 -0.02438357 83.57642145 -0.02484327 84.56448448 -0.0253169 C86.51246469 -0.02627604 88.46044489 -0.02724868 90.40842509 -0.02823468 C108.68976315 -0.03679653 126.97105614 -0.02694198 145.25238681 -0.01083358 C160.95059857 0.00257032 176.64874379 0.00024246 192.34695435 -0.01358986 C210.5613038 -0.02963165 228.77561372 -0.03597248 246.98996925 -0.02675307 C248.93092473 -0.02579738 250.87188021 -0.02485427 252.81283569 -0.02392387 C254.24544827 -0.02322963 254.24544827 -0.02322963 255.70700252 -0.02252137 C262.44879215 -0.01992727 269.19055677 -0.0243115 275.93234253 -0.03136253 C284.14439682 -0.03976219 292.35636505 -0.03752983 300.56840944 -0.0215203 C304.76115184 -0.01361683 308.95375056 -0.01058113 313.146492 -0.02046776 C316.9807065 -0.02937246 320.81464343 -0.0245522 324.64883256 -0.0085351 C326.03976676 -0.00516927 327.43072416 -0.00692153 328.82164359 -0.01416247 C330.70483069 -0.02321804 332.58808297 -0.01218187 334.47125244 0 C336.04370318 0.00073059 336.04370318 0.00073059 337.64792061 0.00147593 C340.61080516 0.43204473 341.46486959 1.01881829 343.23562622 3.37752342 C352.92640076 22.75907249 344.23562622 46.7082928 344.23562622 68.37752342 C227.74562622 68.37752342 111.25562622 68.37752342 -8.76437378 68.37752342 C-8.76437378 46.92752342 -8.76437378 25.47752342 -8.76437378 3.37752342 C-5.26482251 -0.12202784 -4.71593168 0.0021911 0 0 Z " fill="#3C3935" transform="translate(32.764373779296875,66.62247657775879)"/>
<path d="M0 0 C0.33 0 0.66 0 1 0 C1 16.5 1 33 1 50 C98.02 50 195.04 50 295 50 C291.3364432 52.4423712 288.54463656 52.24133601 284.3125 52.3125 C265.49266152 53.08357383 248.88295542 61.10787974 236 75 C227.93370489 84.83407083 222.36675039 95.67602222 219.92553711 108.23754883 C219.75066269 109.13137772 219.57578827 110.0252066 219.39561462 110.94612122 C219.19978539 111.96279121 219.19978539 111.96279121 219 113 C190.88892818 113.07000622 162.77786938 113.122947 134.66672802 113.15543652 C121.61494728 113.1709213 108.56322063 113.19204157 95.51147461 113.22631836 C84.13877732 113.25617142 72.76611918 113.27556327 61.3933838 113.28226548 C55.36870974 113.28618469 49.34414774 113.29542875 43.31950951 113.31719017 C37.6536427 113.33749066 31.98793455 113.34384686 26.32203484 113.33932304 C24.2382496 113.34015114 22.15445929 113.34615492 20.07070541 113.35761642 C17.23392573 113.37245981 14.39775145 113.36898353 11.56095886 113.36076355 C10.72925255 113.36950207 9.89754625 113.3782406 9.04063672 113.38724393 C3.42135503 113.34298578 3.42135503 113.34298578 1.2891655 111.60736942 C-0.42578219 109.46912226 -0.37007644 108.18567825 -0.36076355 105.46321106 C-0.36488754 104.53353012 -0.36901154 103.60384918 -0.3732605 102.64599609 C-0.36247467 101.62820068 -0.35168884 100.61040527 -0.34057617 99.56176758 C-0.34101425 98.48843674 -0.34145233 97.4151059 -0.34190369 96.30924988 C-0.3398102 92.75415996 -0.31645218 89.199539 -0.29296875 85.64453125 C-0.2873748 83.18259438 -0.28310376 80.72065417 -0.28010559 78.25871277 C-0.26864104 71.77311004 -0.23915979 65.28770828 -0.20599365 58.80218506 C-0.17532758 52.1865104 -0.16160765 45.57080334 -0.14648438 38.95507812 C-0.11429182 25.96996625 -0.06365104 12.98499381 0 0 Z " fill="#3B3834" transform="translate(24,284)"/>
<path d="M0 0 C19.5704472 5.96112763 19.5704472 5.96112763 25.33203125 13.01953125 C25.51953125 15.70703125 25.51953125 15.70703125 25.33203125 18.01953125 C26.84796875 17.80296875 26.84796875 17.80296875 28.39453125 17.58203125 C33.116255 18.10666722 34.34622646 19.1390255 37.43359375 22.5546875 C52.01313414 41.48409077 52.01313414 41.48409077 51.33203125 51.01953125 C52.18474609 51.31923828 52.18474609 51.31923828 53.0546875 51.625 C56.21376712 53.55946213 57.84459912 56.25742381 59.76953125 59.33203125 C60.16132568 59.95142578 60.55312012 60.57082031 60.95678711 61.20898438 C65.47107109 68.56933153 70.35076144 77.14710205 69.33203125 86.01953125 C67.67332134 88.9163665 65.66037017 91.08362187 63.38536072 93.52796936 C61.14638967 95.98341084 59.28915335 98.52892224 57.43580627 101.28416443 C52.60915473 107.82110628 47.58651364 112.96435545 39.49940109 114.97008133 C28.88059638 116.56078992 17.97573869 116.02775314 7.28038859 115.7432282 C2.56166225 115.63599297 -2.15730312 115.62689623 -6.87705994 115.60679626 C-15.78887714 115.55423194 -24.69709312 115.41512565 -33.6073336 115.24385494 C-43.76179912 115.05296101 -53.91644886 114.96015328 -64.07226574 114.87503254 C-84.93994868 114.6979611 -105.80270311 114.38657922 -126.66796875 114.01953125 C-126.66796875 99.16953125 -126.66796875 84.31953125 -126.66796875 69.01953125 C-122.94657152 67.77906551 -119.67143503 66.72278413 -115.90234375 65.94140625 C-82.37049567 58.78778172 -46.42396729 45.54275189 -26.4765625 15.74609375 C-22.61987999 9.76901581 -22.61987999 9.76901581 -19.69140625 3.31640625 C-15.99529198 -4.97868989 -7.04022135 -1.8818909 0 0 Z " fill="#E9E9E9" transform="translate(418.66796875,330.98046875)"/>
<path d="M0 0 C35.26216977 -0.29396465 70.52394581 -0.52666713 105.78708318 -0.66384928 C109.9514006 -0.68010822 114.11571556 -0.69693443 118.2800293 -0.71411133 C119.10905941 -0.71752136 119.93808952 -0.7209314 120.79224176 -0.72444477 C134.21105555 -0.7809926 147.62914437 -0.88347972 161.04752826 -1.00298635 C174.8189876 -1.12461338 188.59006762 -1.1967756 202.36204201 -1.22315043 C210.85868277 -1.2409777 219.35327452 -1.29724626 227.84928436 -1.40291407 C233.67764631 -1.47170496 239.50495125 -1.49238666 245.33368956 -1.47551791 C248.69692122 -1.46719729 252.05370146 -1.48692964 255.41678619 -1.54967117 C275.10546506 -1.89896419 275.10546506 -1.89896419 279.90534711 1.25000596 C283.34263905 4.65270206 285.0226209 8.61715266 287 13 C289.94215168 17.1090617 293.3198252 20.26132259 297.4375 23.1875 C298.34371094 23.84105469 299.24992187 24.49460937 300.18359375 25.16796875 C303.03472899 27.0225907 305.93077511 28.53997107 309 30 C307.00603482 37.64353321 305.0358238 44.66508569 297.99108768 49.16961241 C293.59837967 51.00160116 288.72169173 50.52909812 284.04116821 50.48101807 C282.22038114 50.48614462 282.22038114 50.48614462 280.36281049 50.49137473 C277.00115165 50.49681876 273.64042704 50.48434037 270.27888131 50.46426249 C266.65114144 50.44697226 263.02342989 50.45283529 259.3956604 50.45587158 C253.11291306 50.45796796 246.83033201 50.44542882 240.5476265 50.42292023 C231.46394241 50.39039798 222.38033865 50.37999299 213.29660265 50.37496826 C198.55852937 50.36621596 183.8205447 50.33960214 169.08251953 50.30175781 C154.76676883 50.26503605 140.4510422 50.2367251 126.13525391 50.21972656 C125.25267956 50.21867567 124.37010521 50.21762477 123.46078618 50.21654204 C119.03312505 50.21132185 114.60546374 50.20626702 110.17780232 50.20129442 C73.45180314 50.1598344 36.72591427 50.08828609 0 50 C0 33.5 0 17 0 0 Z " fill="#EAE9E9" transform="translate(25,284)"/>
<path d="M0 0 C66.99 0 133.98 0 203 0 C203 0.33 203 0.66 203 1 C201.71867188 1.20753906 200.43734375 1.41507813 199.1171875 1.62890625 C184.82192327 4.11028038 170.63993243 7.57842325 161.0234375 19.4375 C150.68795912 35.50402563 150.38104097 52.42531842 152.9753418 70.8996582 C153 73 153 73 151.125 76 C150.42375 76.66 149.7225 77.32 149 78 C147.13418179 81.73163642 147.44535323 85.93674501 148 90 C149.34854227 92.75304065 150.62787992 93.89144882 153 96 C153.83917969 96.23460937 154.67835938 96.46921875 155.54296875 96.7109375 C158 98 158 98 159.2578125 101.1953125 C159.56683381 102.50064389 159.85499795 103.81104296 160.125 105.125 C161.40477763 110.60592906 162.87148503 115.78513831 165 121 C140.7746713 122.30555664 115.52986846 114.66058027 94 104 C93.32453125 103.67306152 92.6490625 103.34612305 91.953125 103.00927734 C62.77054334 88.77601356 38.12850843 66.87216202 20 40 C19.731875 40.763125 19.46375 41.52625 19.1875 42.3125 C17.96686193 45.07499668 17.42165895 46.25528985 15 48 C12.46010621 48.31038354 10.16965364 48.44434424 7.62890625 48.43359375 C6.55079933 48.44145653 6.55079933 48.44145653 5.45091248 48.44947815 C3.93205048 48.45589606 2.41313877 48.45456425 0.89428711 48.44604492 C-1.42619686 48.43754142 -3.74421286 48.466283 -6.06445312 48.49804688 C-7.54166593 48.49965924 -9.01888308 48.49908069 -10.49609375 48.49609375 C-11.18787216 48.50732773 -11.87965057 48.51856171 -12.59239197 48.53013611 C-15.90255569 48.48241442 -17.73141188 48.1949187 -20.43798828 46.23071289 C-22.13166484 43.81196911 -22.50371376 42.72268105 -22.49609375 39.8125 C-22.49673828 39.03132813 -22.49738281 38.25015625 -22.49804688 37.4453125 C-22.47806641 36.63835937 -22.45808594 35.83140625 -22.4375 35 C-22.44813477 33.78957031 -22.44813477 33.78957031 -22.45898438 32.5546875 C-22.39708962 26.78419173 -22.39708962 26.78419173 -20.87402344 23.77636719 C-18.18576392 21.22819415 -16.24275978 21.45688253 -12.58203125 21.390625 C-11.32841797 21.35839844 -10.07480469 21.32617188 -8.78320312 21.29296875 C-7.47287109 21.27878906 -6.16253906 21.26460937 -4.8125 21.25 C-3.47717464 21.22184019 -2.1418853 21.19191271 -0.80664062 21.16015625 C2.46230149 21.08934884 5.73052579 21.03670367 9 21 C8.51789063 19.98679688 8.03578125 18.97359375 7.5390625 17.9296875 C6.90086422 16.57820878 6.26285332 15.22664156 5.625 13.875 C5.30789062 13.20984375 4.99078125 12.5446875 4.6640625 11.859375 C4.3546875 11.20195312 4.0453125 10.54453125 3.7265625 9.8671875 C3.30238037 8.97169189 3.30238037 8.97169189 2.86962891 8.05810547 C1.75985825 5.43166902 0.90165178 2.70495534 0 0 Z " fill="#3D3934" transform="translate(137,161)"/>
<path d="M0 0 C6.97160288 1.54908335 13.89940665 2.76616191 20.9921875 3.6015625 C21.84491241 3.70205902 22.69763733 3.80255554 23.57620239 3.90609741 C27.05576343 4.30779497 30.53689654 4.69457069 34.01831055 5.07983398 C36.61480685 5.37034938 39.20968371 5.67304749 41.8046875 5.9765625 C42.96577278 6.09856773 42.96577278 6.09856773 44.15031433 6.22303772 C49.38681357 6.83935885 53.7906937 8.20989485 58.66796875 10.22265625 C52.88278023 30.10742484 32.09722477 45.55534321 14.65087891 55.15234375 C4.84414557 60.44570979 -4.98539116 64.66904061 -15.64453125 67.97265625 C-16.50755859 68.24223145 -17.37058594 68.51180664 -18.25976562 68.78955078 C-27.87237618 71.62614477 -37.39707815 73.23566563 -47.33203125 75.22265625 C-47.66203125 90.07265625 -47.99203125 104.92265625 -48.33203125 120.22265625 C-54.47828125 120.28453125 -60.62453125 120.34640625 -66.95703125 120.41015625 C-68.88627441 120.43746826 -70.81551758 120.46478027 -72.80322266 120.49291992 C-74.34667333 120.50168863 -75.89013099 120.50933166 -77.43359375 120.515625 C-78.22338623 120.5309729 -79.01317871 120.5463208 -79.8269043 120.56213379 C-85.42646821 120.56476764 -89.68322002 119.6386741 -93.9765625 115.72265625 C-97.95453317 110.61382435 -98.50587272 106.9136172 -98.5703125 100.6171875 C-98.57838425 99.8603215 -98.58645599 99.10345551 -98.59477234 98.32365417 C-98.6086103 96.7139209 -98.61933375 95.10415831 -98.62719727 93.49438477 C-98.63858984 91.87808387 -98.65883333 90.26181665 -98.6887207 88.64575195 C-99.08049513 67.43083843 -94.22145813 48.16596271 -79.33203125 32.22265625 C-65.65299016 18.19643138 -49.65686976 11.19470964 -30.29541016 10.66333008 C-24.09728897 10.41092118 -19.24894089 9.06049256 -14.33203125 5.22265625 C-12.64622048 3.28606372 -11.57253909 1.49692062 -10.33203125 -0.77734375 C-6.99346885 -2.44662495 -3.50171405 -0.81813469 0 0 Z " fill="#F4B998" transform="translate(340.33203125,324.77734375)"/>
<path d="M0 0 C116.49 0 232.98 0 353 0 C353 9.57 353 19.14 353 29 C350.03 28.34 347.06 27.68 344 27 C340.70751161 26.70619296 340.70751161 26.70619296 337.52019405 26.73828697 C336.30398654 26.73082148 335.08777902 26.72335599 333.83471674 26.71566427 C331.86631078 26.71856637 331.86631078 26.71856637 329.85813904 26.7215271 C328.43143701 26.71651788 327.00473782 26.71064026 325.57804257 26.70397437 C321.67622062 26.68823603 317.7744708 26.6847471 313.87262094 26.68332577 C309.65799513 26.67962091 305.44340839 26.66446003 301.22880554 26.65071106 C293.93288523 26.62846846 286.63697888 26.61343716 279.34103203 26.60334396 C268.79240335 26.58874053 258.24382331 26.56319904 247.69522322 26.53501268 C230.5796246 26.48957492 213.46401896 26.45294765 196.34838867 26.421875 C179.72500375 26.3916771 163.10163598 26.35732113 146.47827148 26.31738281 C145.45310952 26.31492126 144.42794755 26.31245972 143.37172007 26.30992357 C138.2286351 26.29754873 133.08555033 26.28509224 127.94246566 26.27259517 C85.29500037 26.16907253 42.64751463 26.08039872 0 26 C0 17.42 0 8.84 0 0 Z " fill="#FEEA32" transform="translate(24,135)"/>
<path d="M0 0 C1.2683091 -0.00618599 1.2683091 -0.00618599 2.5622406 -0.01249695 C3.48652863 -0.00171112 4.41081665 0.00907471 5.3631134 0.02018738 C6.33890854 0.0197493 7.31470367 0.01931122 8.32006836 0.01885986 C11.55052082 0.02095254 14.7804565 0.04430648 18.01081848 0.0677948 C20.24855262 0.07338904 22.48629042 0.07765995 24.72402954 0.08065796 C30.61780415 0.0921202 36.51135747 0.12159942 42.40504456 0.1547699 C48.41748562 0.18544097 54.42996239 0.19915697 60.44245911 0.21427917 C72.24268662 0.24646765 84.04274978 0.29768079 95.84284973 0.36076355 C95.85093658 1.00032486 95.85902344 1.63988617 95.86735535 2.29882812 C95.95390313 8.99959554 96.05342417 15.70008405 96.16023254 22.40055847 C96.1983425 24.89595325 96.23322559 27.39139961 96.26472473 29.8868866 C96.31076787 33.48904259 96.36869569 37.09084898 96.42878723 40.6927948 C96.44033844 41.79533096 96.45188965 42.89786713 96.46379089 44.03381348 C96.57920079 50.19221533 97.14481046 55.97882073 98.41990662 62.00924683 C98.84284973 64.36076355 98.84284973 64.36076355 98.84284973 68.36076355 C63.86284973 68.36076355 28.88284973 68.36076355 -7.15715027 68.36076355 C-7.21902527 57.69763855 -7.28090027 47.03451355 -7.34465027 36.04826355 C-7.37196228 32.68211853 -7.39927429 29.31597351 -7.42741394 25.8478241 C-7.4361731 23.18938049 -7.44381838 20.53093287 -7.45011902 17.8724823 C-7.45795914 17.18120743 -7.46579926 16.48993256 -7.47387695 15.77770996 C-7.49581732 13.74128818 -7.4971668 11.70467649 -7.49772644 9.6681366 C-7.50438828 8.52008041 -7.51105011 7.37202423 -7.51791382 6.18917847 C-6.9111618 1.43219442 -4.63998435 -0.01746544 0 0 Z " fill="#000000" transform="translate(31.157150268554688,66.63923645019531)"/>
<path d="M0 0 C0 3.61692599 -0.5445593 3.9286557 -3.0078125 6.40625 C-3.6579834 7.06246338 -4.3081543 7.71867676 -4.97802734 8.39477539 C-6.04077881 9.43686157 -6.04077881 9.43686157 -7.125 10.5 C-7.84768066 11.21470459 -8.57036133 11.92940918 -9.31494141 12.66577148 C-15.82312924 19.00523907 -22.6854311 24.62695248 -30 30 C-30.85851562 30.65355469 -31.71703125 31.30710937 -32.6015625 31.98046875 C-38.24765368 36.14607022 -44.2616935 39.27894956 -50.5625 42.30859375 C-53.60467035 43.80547985 -56.50882158 45.42096241 -59.4375 47.125 C-64.90610249 50.15861825 -70.64028625 52.05280176 -76.578125 53.9140625 C-79.09615742 54.71316411 -81.50044584 55.55964143 -83.9375 56.5625 C-87.93937809 58.1220245 -92.090624 59.06920817 -96.25390625 60.08984375 C-96.99870239 60.2741394 -97.74349854 60.45843506 -98.51086426 60.64831543 C-100.34013048 61.10068307 -102.17000586 61.55058612 -104 62 C-94.88890982 62.16344686 -85.77833753 62.2871958 -76.66609192 62.3626852 C-72.43311135 62.39894884 -68.20114629 62.44799211 -63.96875 62.52807617 C-59.87078135 62.60511588 -55.77377825 62.64619123 -51.67514038 62.6641407 C-50.1252017 62.67690228 -48.57530539 62.70181369 -47.02578735 62.7401104 C-35.17932754 63.0207852 -26.45302022 60.52577743 -16 55 C-15.04224419 54.50006688 -15.04224419 54.50006688 -14.06513977 53.9900341 C8.13633951 42.3275951 26.78315389 24.53103196 41 4 C41.99 4.495 41.99 4.495 43 5 C43 6.98 43 8.96 43 11 C43.85271484 11.29970703 43.85271484 11.29970703 44.72265625 11.60546875 C47.88173587 13.53993088 49.51256787 16.23789256 51.4375 19.3125 C51.82929443 19.93189453 52.22108887 20.55128906 52.62475586 21.18945312 C57.13903984 28.54980028 62.01873019 37.1275708 61 46 C59.34129009 48.89683525 57.32833892 51.06409062 55.05332947 53.50843811 C52.81435842 55.96387959 50.9571221 58.50939099 49.10377502 61.26463318 C44.27712348 67.80157503 39.25448239 72.9448242 31.16736984 74.95055008 C20.54856513 76.54125867 9.64370744 76.00822189 -1.05164266 75.72369695 C-5.770369 75.61646172 -10.48933437 75.60736498 -15.20909119 75.58726501 C-24.12090839 75.53470069 -33.02912437 75.3955944 -41.93936485 75.22432369 C-52.09383037 75.03342976 -62.24848011 74.94062203 -72.40429699 74.85550129 C-93.27197993 74.67842985 -114.13473436 74.36704797 -135 74 C-135 59.15 -135 44.3 -135 29 C-130.65934361 27.55311454 -127.06385058 26.56548787 -122.625 25.875 C-121.56539063 25.70742188 -120.50578125 25.53984375 -119.4140625 25.3671875 C-118.61742187 25.24601562 -117.82078125 25.12484375 -117 25 C-116.82984375 25.66386719 -116.6596875 26.32773437 -116.484375 27.01171875 C-114.71698627 33.45140641 -113.06611576 37.72006777 -107.5625 41.8125 C-86.68157583 48.77280806 -56.44307782 35.15113708 -37.80615234 26.08666992 C-24.55578072 19.34255781 -10.26015132 10.89046778 0 0 Z " fill="#DBD7D8" transform="translate(427,371)"/>
<path d="M0 0 C1.14782959 -0.01844971 2.29565918 -0.03689941 3.47827148 -0.0559082 C13.70585506 0.01842337 24.66905165 1.53852457 32.26171875 8.98046875 C36.5625 14.0045045 36.5625 14.0045045 36.5625 17.5 C38.295 17.4071875 38.295 17.4071875 40.0625 17.3125 C45.85425878 17.3227509 50.34284883 19.15788534 55.25 22.125 C63.68621711 30.78922298 64.8899774 41.47235264 64.87182617 53.09472656 C64.68004844 61.46213656 64.26734124 72.44273813 59.5625 79.5 C59.33175781 78.4378125 59.10101563 77.375625 58.86328125 76.28125 C56.35983567 65.23579215 53.59508279 55.98639021 43.5625 49.5 C37.36484791 47.48359822 31.5773554 47.69724656 25.75 50.625 C23.0749835 52.05249351 20.49133834 53.54508313 17.9296875 55.16796875 C8.96632317 60.42364616 -0.2847162 61.15277876 -10.4375 59.5 C-15.70897362 57.76949458 -20.05940621 55.19801162 -24.5546875 51.98828125 C-30.10090295 48.10147564 -34.72025312 47.47034902 -41.4375 48.5 C-47.19226767 50.09469465 -50.79509516 53.28319153 -54.12109375 58.16796875 C-58.29848116 65.56826633 -60.07135493 73.0603562 -60.4375 81.5 C-62.4375 80.5 -62.4375 80.5 -63.5078125 77.45703125 C-68.46238813 59.00077996 -69.07310107 39.62433495 -59.3125 22.6875 C-50.6344555 10.00278388 -37.54763022 4.58700868 -22.97485352 1.68457031 C-15.33622956 0.38169635 -7.73933768 0.072484 0 0 Z " fill="#9F7EC5" transform="translate(354.4375,160.5)"/>
<path d="M0 0 C0.33 0 0.66 0 1 0 C1 16.5 1 33 1 50 C98.02 50 195.04 50 295 50 C291.3364432 52.4423712 288.54463656 52.24133601 284.3125 52.3125 C265.4468567 53.08545051 248.97320064 61.13603383 236 75 C235.68973877 75.60642334 235.37947754 76.21284668 235.05981445 76.83764648 C233.88185837 79.03846986 232.96065203 80.43654199 231 82 C226.66912107 82.73777052 222.54319451 82.33838548 218.1875 81.9375 C214.165625 81.628125 210.14375 81.31875 206 81 C206 71.1 206 61.2 206 51 C186.2 51 166.4 51 146 51 C146 60.9 146 70.8 146 81 C127.19 81 108.38 81 89 81 C89 71.1 89 61.2 89 51 C69.2 51 49.4 51 29 51 C29 60.9 29 70.8 29 81 C19.76 81 10.52 81 1 81 C-0.14312184 53.99374657 -0.10486207 27.02588103 0 0 Z " fill="#494643" transform="translate(24,284)"/>
<path d="M0 0 C36.96 0 73.92 0 112 0 C108.535 7.425 108.535 7.425 105 15 C103.68 19.95 102.36 24.9 101 30 C67.67 30 34.34 30 0 30 C0 20.1 0 10.2 0 0 Z " fill="#3C3935" transform="translate(142,366)"/>
<path d="M0 0 C34.98 0 69.96 0 106 0 C108.31 7.92 110.62 15.84 113 24 C191.87 24.33 270.74 24.66 352 25 C352 16.75 352 8.5 352 0 C352.33 0 352.66 0 353 0 C353 9.57 353 19.14 353 29 C350.03 28.34 347.06 27.68 344 27 C340.70751161 26.70619296 340.70751161 26.70619296 337.52019405 26.73828697 C336.30398654 26.73082148 335.08777902 26.72335599 333.83471674 26.71566427 C331.86631078 26.71856637 331.86631078 26.71856637 329.85813904 26.7215271 C328.43143701 26.71651788 327.00473782 26.71064026 325.57804257 26.70397437 C321.67622062 26.68823603 317.7744708 26.6847471 313.87262094 26.68332577 C309.65799513 26.67962091 305.44340839 26.66446003 301.22880554 26.65071106 C293.93288523 26.62846846 286.63697888 26.61343716 279.34103203 26.60334396 C268.79240335 26.58874053 258.24382331 26.56319904 247.69522322 26.53501268 C230.5796246 26.48957492 213.46401896 26.45294765 196.34838867 26.421875 C179.72500375 26.3916771 163.10163598 26.35732113 146.47827148 26.31738281 C145.45310952 26.31492126 144.42794755 26.31245972 143.37172007 26.30992357 C138.2286351 26.29754873 133.08555033 26.28509224 127.94246566 26.27259517 C85.29500037 26.16907253 42.64751463 26.08039872 0 26 C0 17.42 0 8.84 0 0 Z " fill="#F7DD20" transform="translate(24,135)"/>
<path d="M0 0 C19.14 0 38.28 0 58 0 C58 9.9 58 19.8 58 30 C38.86 30 19.72 30 0 30 C0 20.1 0 10.2 0 0 Z " fill="#484542" transform="translate(83,366)"/>
<path d="M0 0 C4.34594583 1.50132674 6.18482859 4.77095719 8.5 8.5 C8.89437256 9.12422852 9.28874512 9.74845703 9.69506836 10.39160156 C17 22.22628841 17 22.22628841 17 28 C16.34 28 15.68 28 15 28 C14.72671875 28.59425781 14.4534375 29.18851562 14.171875 29.80078125 C7.81606299 41.72852179 -7.36016275 48.3186712 -19.625 52.125 C-25.05623241 53.53309729 -30.0998478 54.12339519 -35.7109375 54.09765625 C-36.95488281 54.09443359 -38.19882812 54.09121094 -39.48046875 54.08789062 C-40.76566406 54.07951172 -42.05085938 54.07113281 -43.375 54.0625 C-44.68339844 54.05798828 -45.99179687 54.05347656 -47.33984375 54.04882812 C-50.55994281 54.03707594 -53.7799477 54.02064543 -57 54 C-54.07198525 51.77170488 -51.06897505 49.73338053 -47.9753418 47.74023438 C-39.75794281 42.41229731 -32.24683416 36.58093523 -25 30 C-24.15050781 29.23429687 -23.30101562 28.46859375 -22.42578125 27.6796875 C-13.84749246 19.52962247 -6.55708817 9.83563225 0 0 Z " fill="#E9E9E9" transform="translate(470,382)"/>
<path d="M0 0 C17.49 0 34.98 0 53 0 C49.535 7.425 49.535 7.425 46 15 C44.68 19.95 43.36 24.9 42 30 C28.14 30 14.28 30 0 30 C0 20.1 0 10.2 0 0 Z " fill="#494643" transform="translate(201,366)"/>
<path d="M0 0 C25.08 0 50.16 0 76 0 C76 0.33 76 0.66 76 1 C75.05640625 1.15855469 74.1128125 1.31710937 73.140625 1.48046875 C56.29673316 4.54145713 40.10481581 11.34847976 29 25 C28.54238281 26.06089844 28.08476562 27.12179687 27.61328125 28.21484375 C25 31 25 31 22.33764648 31.38842773 C18.94454161 31.36588477 15.63231608 31.15979497 12.25 30.875 C8.2075 30.58625 4.165 30.2975 0 30 C0 20.1 0 10.2 0 0 Z " fill="#494643" transform="translate(230,335)"/>
<path d="M0 0 C0.33 0 0.66 0 1 0 C1 16.5 1 33 1 50 C98.02 50 195.04 50 295 50 C291.83789519 52.10806987 291.12758777 52.2476325 287.52348804 52.23047829 C286.14032877 52.23122634 286.14032877 52.23122634 284.72922689 52.2319895 C283.71464601 52.22227287 282.70006513 52.21255624 281.65473938 52.20254517 C280.57820183 52.20017046 279.50166429 52.19779576 278.39250439 52.1953491 C274.76718102 52.18489082 271.14209762 52.16000755 267.5168457 52.13525391 C264.92530647 52.12483308 262.33376355 52.11529688 259.74221802 52.10658264 C254.15352803 52.08638847 248.56491325 52.05881856 242.97628212 52.02626419 C234.89602832 51.97920648 226.81575521 51.94323328 218.7354342 51.90998094 C205.62623294 51.85573189 192.51709101 51.79249611 179.40795898 51.72363281 C166.67230108 51.6567506 153.93663397 51.5940859 141.20092773 51.53710938 C140.41613607 51.53359693 139.6313444 51.53008449 138.82277117 51.52646561 C134.88577264 51.50887111 130.94877374 51.49135969 127.01177466 51.47388959 C94.34111506 51.32880876 61.67054672 51.16860062 29 51 C29 60.9 29 70.8 29 81 C19.76 81 10.52 81 1 81 C-0.14312184 53.99374657 -0.10486207 27.02588103 0 0 Z " fill="#5A5855" transform="translate(24,284)"/>
<path d="M0 0 C1.1149585 -0.00430527 1.1149585 -0.00430527 2.25244141 -0.00869751 C3.8225989 -0.01073726 5.39278186 -0.0052135 6.96289062 0.00732422 C9.36646332 0.02338047 11.76835461 0.00747398 14.171875 -0.01171875 C15.69792038 -0.0097363 17.22396471 -0.00589259 18.75 0 C19.46881348 -0.00607269 20.18762695 -0.01214539 20.92822266 -0.0184021 C23.78427146 0.02186078 25.87906175 0.08304934 28.32446289 1.63818359 C30.45135481 5.2019509 29.84375413 9.36381282 29.8125 13.3984375 C29.8424707 14.77128906 29.8424707 14.77128906 29.87304688 16.171875 C29.87240234 17.05101562 29.87175781 17.93015625 29.87109375 18.8359375 C29.87387329 20.04056641 29.87387329 20.04056641 29.87670898 21.26953125 C29.375 23.3984375 29.375 23.3984375 27.79711914 25.15649414 C24.4792715 26.85772294 21.84654701 26.80399918 18.125 26.83203125 C17.08230957 26.83989403 17.08230957 26.83989403 16.01855469 26.84791565 C14.55274793 26.85432279 13.08688967 26.85301572 11.62109375 26.84448242 C9.38188013 26.83596367 7.14521228 26.86475918 4.90625 26.89648438 C3.47916743 26.89809641 2.05208035 26.89751881 0.625 26.89453125 C-0.66921875 26.89638428 -1.9634375 26.8982373 -3.296875 26.90014648 C-6.625 26.3984375 -6.625 26.3984375 -9.04711914 24.64501953 C-10.80421386 22.14327335 -11.12849551 20.9766258 -11.12109375 17.95703125 C-11.12173828 17.12623047 -11.12238281 16.29542969 -11.12304688 15.43945312 C-11.10306641 14.58029297 -11.08308594 13.72113281 -11.0625 12.8359375 C-11.06958984 11.97291016 -11.07667969 11.10988281 -11.08398438 10.22070312 C-11.02172667 4.05719001 -11.02172667 4.05719001 -9.57446289 1.65405273 C-6.56238296 -0.2859757 -3.46883017 -0.02930543 0 0 Z " fill="#FBE833" transform="translate(225.625,182.6015625)"/>
<path d="M0 0 C0.74330566 0.00091644 1.48661133 0.00183289 2.25244141 0.0027771 C3.82265617 0.00881417 5.39285936 0.02456366 6.96289062 0.04931641 C9.36631706 0.08580567 11.76820061 0.0903359 14.171875 0.08984375 C15.69792999 0.09967596 17.22397453 0.11133342 18.75 0.125 C19.46881348 0.12722565 20.18762695 0.12945129 20.92822266 0.13174438 C24.61367342 0.20184807 26.22728097 0.36245815 29.375 2.4609375 C29.76318359 4.56811523 29.76318359 4.56811523 29.7734375 7.14453125 C29.77923828 8.53575195 29.77923828 8.53575195 29.78515625 9.95507812 C29.77355469 10.92638672 29.76195312 11.89769531 29.75 12.8984375 C29.76160156 13.86587891 29.77320313 14.83332031 29.78515625 15.83007812 C29.78128906 16.75884766 29.77742188 17.68761719 29.7734375 18.64453125 C29.77005371 19.49587646 29.76666992 20.34722168 29.76318359 21.22436523 C29.375 23.4609375 29.375 23.4609375 28.31079102 25.23486328 C25.36317651 27.10179733 22.38625107 26.90884273 19.00390625 26.89453125 C18.2851683 26.8997731 17.56643036 26.90501495 16.82591248 26.91041565 C15.30705048 26.91683356 13.78813877 26.91550175 12.26928711 26.90698242 C9.94880314 26.89847892 7.63078714 26.9272205 5.31054688 26.95898438 C3.83333407 26.96059674 2.35611692 26.96001819 0.87890625 26.95703125 C0.18712784 26.96826523 -0.50465057 26.97949921 -1.21739197 26.99107361 C-4.52755569 26.94335192 -6.35641188 26.6558562 -9.06298828 24.69165039 C-10.75666484 22.27290661 -11.12871376 21.18361855 -11.12109375 18.2734375 C-11.12173828 17.49226563 -11.12238281 16.71109375 -11.12304688 15.90625 C-11.10306641 15.09929687 -11.08308594 14.29234375 -11.0625 13.4609375 C-11.07313477 12.25050781 -11.07313477 12.25050781 -11.08398438 11.015625 C-11.0482148 7.68080028 -11.01332496 5.28631981 -9.57446289 2.22802734 C-6.66726738 -0.40719884 -3.72708166 -0.07451448 0 0 Z " fill="#F3DA20" transform="translate(125.625,182.5390625)"/>
<path d="M0 0 C0.66 0.33 1.32 0.66 2 1 C1.7834375 1.56203125 1.566875 2.1240625 1.34375 2.703125 C-2.70667109 14.92939608 -1.57331652 28.3880918 0 41 C-1.19625 41.495 -2.3925 41.99 -3.625 42.5 C-11.31643159 46.4000722 -14.58653249 53.254391 -17.25390625 61.16796875 C-18.37259178 65.41428817 -18.81004343 69.62150107 -19 74 C-21 73 -21 73 -22.0703125 69.95703125 C-27.02488813 51.50077996 -27.63560107 32.12433495 -17.875 15.1875 C-13.54174408 8.7858865 -7.29349179 2.88928475 0 0 Z " fill="#8E6DBA" transform="translate(313,168)"/>
<path d="M0 0 C4.58368478 -0.08078296 9.16595193 -0.14040362 13.75 -0.1875 C15.05195312 -0.21263672 16.35390625 -0.23777344 17.6953125 -0.26367188 C19.57089844 -0.27817383 19.57089844 -0.27817383 21.484375 -0.29296875 C22.63647461 -0.3086792 23.78857422 -0.32438965 24.97558594 -0.34057617 C28.33077664 0.03724842 29.71132523 0.53537906 32 3 C32.51757812 5.02124023 32.51757812 5.02124023 32.53125 7.30859375 C32.53898437 8.55286133 32.53898437 8.55286133 32.546875 9.82226562 C32.53140625 10.68529297 32.5159375 11.54832031 32.5 12.4375 C32.51546875 13.29666016 32.5309375 14.15582031 32.546875 15.04101562 C32.54171875 15.87181641 32.5365625 16.70261719 32.53125 17.55859375 C32.52673828 18.31454834 32.52222656 19.07050293 32.51757812 19.84936523 C31.76953567 22.95762277 30.56096379 24.11562156 28 26 C24.97558594 26.45410156 24.97558594 26.45410156 21.484375 26.390625 C20.23398437 26.37773437 18.98359375 26.36484375 17.6953125 26.3515625 C15.74238281 26.30128906 15.74238281 26.30128906 13.75 26.25 C12.43257812 26.23195312 11.11515625 26.21390625 9.7578125 26.1953125 C6.50489844 26.14816882 3.25235783 26.07642616 0 26 C0 17.42 0 8.84 0 0 Z " fill="#F1D820" transform="translate(24,183)"/>
<path d="M0 0 C3.5625 1 3.5625 1 6 3.4375 C8.05227389 8.11668447 8.25733056 11.96452206 7.5625 17 C6.22612375 20.401685 5.12771154 22.43478846 2.5625 25 C-0.8125 25.4375 -0.8125 25.4375 -4.4375 25 C-8.40082635 21.03667365 -9.59832589 18.1791388 -9.6875 12.6875 C-9.64729228 8.29911494 -9.42153058 5.42610918 -6.4375 2 C-3.4375 0 -3.4375 0 0 0 Z " fill="#F3D920" transform="translate(86.4375,183)"/>
<path d="M0 0 C3.04575642 2.56120426 4.73506553 4.20519658 6 8 C6.39945522 13.99182824 5.77105257 17.67105275 3 23 C1 25 1 25 -2.375 25.375 C-6 25 -6 25 -8.375 23.1875 C-11.92910172 18.4031323 -11.61169506 12.71730987 -11 7 C-8.84946273 1.73067408 -5.76017689 -0.80374561 0 0 Z " fill="#FAE733" transform="translate(188,183)"/>
<path d="M0 0 C3.5 0.875 3.5 0.875 5.5 2 C7.87826498 6.45924683 4.97464341 13.57771487 3.9375 18.3125 C3.66808594 19.54871094 3.39867187 20.78492188 3.12109375 22.05859375 C2.91613281 22.98800781 2.71117187 23.91742188 2.5 24.875 C-3.21875 25.0859375 -3.21875 25.0859375 -5.75 23.1875 C-9.26788781 18.53886253 -10.00997339 14.68869667 -9.5 8.875 C-5.83175355 -0.20827691 -5.83175355 -0.20827691 0 0 Z " fill="#F9E633" transform="translate(285.5,183.125)"/>
<path d="M0 0 C0.33 0 0.66 0 1 0 C1 9.57 1 19.14 1 29 C-3.455 28.01 -3.455 28.01 -8 27 C-10.5147284 26.71219822 -10.5147284 26.71219822 -12.71504307 26.73828697 C-13.53762688 26.73082148 -14.3602107 26.72335599 -15.20772129 26.71566427 C-16.08031478 26.717599 -16.95290826 26.71953374 -17.85194397 26.7215271 C-18.80293439 26.7157347 -19.75392481 26.7099423 -20.73373312 26.70397437 C-23.89812603 26.68706358 -27.06237231 26.68410556 -30.22680664 26.68115234 C-32.50397088 26.67184802 -34.78113173 26.66167859 -37.05828857 26.65071106 C-43.22490713 26.623454 -49.39150289 26.60827432 -55.55816579 26.59528303 C-62.00840313 26.57963375 -68.45859406 26.55284923 -74.90879822 26.5272522 C-85.73012045 26.48580571 -96.55144159 26.45120232 -107.37280273 26.421875 C-118.51539944 26.39165826 -129.65797072 26.35729371 -140.80053711 26.31738281 C-141.83198431 26.31369049 -141.83198431 26.31369049 -142.88426883 26.30992357 C-146.33415382 26.29754837 -149.78403852 26.28509195 -153.23392308 26.27259517 C-181.82257943 26.16914121 -210.41126906 26.08004703 -239 26 C-239 25.67 -239 25.34 -239 25 C-160.13 25 -81.26 25 0 25 C0 16.75 0 8.5 0 0 Z " fill="#B2A436" transform="translate(376,135)"/>
<path d="M0 0 C1.32 0 2.64 0 4 0 C4 15.51 4 31.02 4 47 C2.68 47 1.36 47 0 47 C0 31.49 0 15.98 0 0 Z " fill="#ED927D" transform="translate(288,397)"/>
<path d="M0 0 C0 5.42348259 -4.47812858 9.14652381 -8 13 C-13.82217605 18.46301584 -20.40258553 23.32629452 -28 26 C-28.66 25.67 -29.32 25.34 -30 25 C-20.48877881 15.99395356 -10.50358864 7.8262033 0 0 Z " fill="#D2C7CD" transform="translate(441,391)"/>
<path d="M0 0 C0.66 0.33 1.32 0.66 2 1 C-6.64639535 8.67639355 -15.52540181 14.65824527 -27 17 C-29.19140625 16.5390625 -29.19140625 16.5390625 -31 16 C-23.28433258 11.11119349 -15.55742843 6.56271228 -7.1875 2.875 C-6.50042969 2.56812256 -5.81335938 2.26124512 -5.10546875 1.94506836 C-3.43079895 1.2294931 -1.71747789 0.60567038 0 0 Z " fill="#D2C7CD" transform="translate(380,390)"/>
<path d="M0 0 C0.33 0 0.66 0 1 0 C1 9.57 1 19.14 1 29 C-3.455 28.01 -3.455 28.01 -8 27 C-8 26.67 -8 26.34 -8 26 C-5.36 26 -2.72 26 0 26 C0 17.42 0 8.84 0 0 Z " fill="#A1973C" transform="translate(376,135)"/>
<path d="M0 0 C5.94 0 11.88 0 18 0 C18 0.33 18 0.66 18 1 C15.56318413 1.50354867 13.12564561 2.00296756 10.6875 2.5 C9.65206055 2.71462891 9.65206055 2.71462891 8.59570312 2.93359375 C5.67475227 3.52625044 2.98891878 4 0 4 C0 2.68 0 1.36 0 0 Z " fill="#3E3A35" transform="translate(288,335)"/>
<path d="M0 0 C2.97 0 5.94 0 9 0 C9 0.99 9 1.98 9 3 C4.545 2.01 4.545 2.01 0 1 C0 0.67 0 0.34 0 0 Z " fill="#443E41" transform="translate(368,161)"/>
</svg>
